<?xml version="1.0" encoding="UTF-8" standalone="no"?>
<!-- Created with Inkscape (http://www.inkscape.org/) -->

<svg
   width="300mm"
   height="129mm"
   viewBox="0 0 300 129"
   version="1.1"
   id="svg1"
   xml:space="preserve"
   xmlns="http://www.w3.org/2000/svg"
   xmlns:svg="http://www.w3.org/2000/svg"><defs
     id="defs1" /><g
     id="layer1"><g
       id="g667"
       transform="matrix(0.26458333,0,0,0.26458333,-58.644421,-91.234897)">
		
		
		
			<linearGradient
   id="SVGID_99_"
   gradientUnits="userSpaceOnUse"
   x1="945.99487"
   y1="1555.79"
   x2="945.99487"
   y2="1787.958"
   gradientTransform="rotate(90,1093.0468,771.02735)">
			<stop
   offset="0"
   style="stop-color:#50070C"
   id="stop606" />
			<stop
   offset="1"
   style="stop-color:#B12420"
   id="stop607" />
		</linearGradient>
		
		
		
		
		
		
		
		
		
		
		
		
		
		
			<linearGradient
   id="SVGID_104_"
   gradientUnits="userSpaceOnUse"
   x1="945.99518"
   y1="671.73181"
   x2="945.99518"
   y2="1769.4391"
   gradientTransform="rotate(90,1093.0468,771.02735)">
			<stop
   offset="0"
   style="stop-color:#50070C"
   id="stop638" />
			<stop
   offset="1"
   style="stop-color:#B12420"
   id="stop639" />
		</linearGradient>
		
		
		
		
		
		
		
		
		
		<polygon
   class="st11"
   points=""
   id="polygon647" />
		<polygon
   class="st11"
   points=""
   id="polygon648" />
		
		
		
		
		
		
		
		
		
		
		
		
		<g
   id="g1"
   transform="translate(149.9175,-36.965959)"><path
     class="st136"
     d="m 82.616644,714.63935 v -181.32 c 0,-51.74 41.949996,-93.69 93.689996,-93.69 h 37.15 c 51.74,0 93.69,41.95 93.69,93.69 v 181.32 c 0,51.74 -41.95,93.69 -93.69,93.69 h -37.15 c -51.74,0 -93.689996,-41.95 -93.689996,-93.69 z"
     id="path605" /><path
     class="st11"
     d="m 817.52664,753.15935 v -258.37 c 0,-40.35 32.71,-73.06 73.06,-73.06 h 167.55996 c 40.35,0 73.06,32.71 73.06,73.06 v 258.38 c 0,40.35 -32.71,73.06 -73.06,73.06 H 890.58664 c -40.35,-0.01 -73.06,-32.72 -73.06,-73.07 z"
     id="path606" /><path
     class="st154"
     d="m 90.876644,716.36935 v 0 c -17.44,-60.34 -17.45,-124.39 -0.02,-184.74 l 0.02,-0.06 c 0,-50.78 41.169996,-91.95 91.949996,-91.95 h 32.37 c 50.78,0 91.95,41.17 91.95,91.95 v 184.8 c 0,50.78 -41.17,91.95 -91.95,91.95 h -32.37 c -50.78,0.01 -91.949996,-41.16 -91.949996,-91.95 z"
     id="path607"
     style="fill:url(#SVGID_99_)" /><path
     class="st136"
     d="m 391.04664,833.78935 c 64.23,0 55.51,-6.32 55.51,-6.32 l 0.4,-203.5 -0.4,-203.5 c 0,0 8.72,-6.32 -55.51,-6.32 -64.23,0 -154.8,4.92 -154.8,13.66 0,0 -147.859996,-2.89 -147.859996,196.16 0,199.05 147.859996,196.16 147.859996,196.16 0,8.74 90.58,13.66 154.8,13.66 z"
     id="path608" /><g
     id="g615"
     transform="translate(20.536644,-314.21065)">
			
				<linearGradient
   id="SVGID_100_"
   gradientUnits="userSpaceOnUse"
   x1="794.54401"
   y1="1747.3602"
   x2="863.75848"
   y2="1747.3602"
   gradientTransform="rotate(90,925.67315,917.86435)">
				<stop
   offset="0"
   style="stop-color:#A3A8AB"
   id="stop608" />
				<stop
   offset="0.3105"
   style="stop-color:#FFFFFF"
   id="stop609" />
				<stop
   offset="0.6214"
   style="stop-color:#A3A8AB"
   id="stop610" />
				<stop
   offset="1"
   style="stop-color:#E6ECF2"
   id="stop611" />
			</linearGradient>
			<path
   class="st155"
   d="m 114.04,786.74 c 0,0 -28.95,7.95 -35.72,69.21 0,0 35.72,-17.76 35.72,-69.21 z"
   id="path611"
   style="fill:url(#SVGID_100_)" />
			
				<linearGradient
   id="SVGID_101_"
   gradientUnits="userSpaceOnUse"
   x1="3794.1458"
   y1="1747.3602"
   x2="3863.3604"
   y2="1747.3602"
   gradientTransform="matrix(0,-1,-1,0,1843.5375,4883.7827)">
				<stop
   offset="0"
   style="stop-color:#A3A8AB"
   id="stop612" />
				<stop
   offset="0.3105"
   style="stop-color:#FFFFFF"
   id="stop613" />
				<stop
   offset="0.6214"
   style="stop-color:#A3A8AB"
   id="stop614" />
				<stop
   offset="1"
   style="stop-color:#E6ECF2"
   id="stop615" />
			</linearGradient>
			<path
   class="st156"
   d="m 114.04,1089.64 c 0,0 -28.95,-7.95 -35.72,-69.21 0,-0.01 35.72,17.75 35.72,69.21 z"
   id="path615"
   style="fill:url(#SVGID_101_)" />
		</g><path
     class="st92"
     d="m 392.31664,833.78935 c 62.77,0 54.25,-6.32 54.25,-6.32 l 0.39,-203.5 -0.39,-203.5 c 0,0 8.52,-6.32 -54.25,-6.32 -62.77,0 -135.54,4.92 -135.54,13.66 0,0 -160.249996,-2.89 -160.249996,196.16 0,199.05 160.249996,196.16 160.249996,196.16 0.01,8.74 72.78,13.66 135.54,13.66 z"
     id="path616" /><path
     class="st124"
     d="m 1200.1966,623.97935 c 0,0 5.13,-113.5 -24.98,-130.18 v 130.18 130.18 c 30.12,-16.69 24.98,-130.18 24.98,-130.18 z"
     id="path617" /><path
     class="st6"
     d="m 1198.3966,623.97935 c 0,0 4.06,-90.87 -19.74,-104.22 v 104.22 104.22 c 23.79,-13.36 19.74,-104.22 19.74,-104.22 z"
     id="path618" /><path
     class="st124"
     d="m 1190.1766,623.97935 c 0,0 2.37,-94.26 -11.52,-108.12 v 108.12 108.12 c 13.88,-13.86 11.52,-108.12 11.52,-108.12 z"
     id="path619" /><path
     class="st133"
     d="m 1175.2166,754.15935 c 6.99,-9.79 6.95,-130.18 6.95,-130.18 0,0 0.04,-120.39 -6.95,-130.18 -6.99,-9.79 -50.39,-86.36 -140.52,-61.74 -90.12996,24.62 -84.95996,195.29 -84.95996,195.29 0,0 -5.18,163.92 84.95996,188.54 90.13,24.63 133.53,-51.95 140.52,-61.73 z"
     id="path620" /><g
     id="g627"
     transform="translate(20.536644,-314.21065)">
			<path
   class="st124"
   d="m 1059.23,752.17 91.16,90.39 c 0,0 -7.39,-30.82 -18.32,-47.81 -10.06,-15.62 -40.45,-51.65 -70.29,-49.34 -3.42,0.25 -4.98,4.35 -2.55,6.76 z"
   id="path621" />
			
				<linearGradient
   id="SVGID_102_"
   gradientUnits="userSpaceOnUse"
   x1="756.48853"
   y1="741.44788"
   x2="845.1994"
   y2="741.44788"
   gradientTransform="rotate(90,925.67315,917.86435)">
				<stop
   offset="0"
   style="stop-color:#A3A8AB"
   id="stop621" />
				<stop
   offset="0.3105"
   style="stop-color:#FFFFFF"
   id="stop622" />
				<stop
   offset="0.6214"
   style="stop-color:#A3A8AB"
   id="stop623" />
				<stop
   offset="1"
   style="stop-color:#E6ECF2"
   id="stop624" />
			</linearGradient>
			<path
   class="st157"
   d="m 1057.31,750.17 89.56,87.22 c 0,0 -6.86,-28.11 -17.02,-43.61 -10.15,-15.5 -42.66,-53.01 -72.54,-43.61 z"
   id="path624"
   style="fill:url(#SVGID_102_)" />
			<path
   class="st34"
   d="m 1057.31,753.43 86.56,83.96 c 0,0 -6.63,-27.06 -16.45,-41.98 -9.81,-14.92 -41.23,-51.03 -70.11,-41.98 z"
   id="path625" />
			<path
   class="st151"
   d="m 1057.31,754.65 74.24,82.74 c 0,0 -5.69,-26.67 -14.11,-41.37 -8.41,-14.7 -35.36,-50.29 -60.13,-41.37 z"
   id="path626" />
			<path
   class="st6"
   d="m 1057.31,762.97 75.46,74.42 c 0,0 -5.78,-23.99 -14.34,-37.21 -8.56,-13.22 -35.94,-45.24 -61.12,-37.21 z"
   id="path627" />
		</g><g
     id="g634"
     transform="translate(20.536644,-314.21065)">
			<path
   class="st124"
   d="m 1059.23,1124.2 91.16,-90.39 c 0,0 -7.39,30.82 -18.32,47.81 -10.06,15.62 -40.45,51.65 -70.29,49.34 -3.42,-0.25 -4.98,-4.35 -2.55,-6.76 z"
   id="path628" />
			
				<linearGradient
   id="SVGID_103_"
   gradientUnits="userSpaceOnUse"
   x1="3709.3777"
   y1="741.44788"
   x2="3798.0886"
   y2="741.44788"
   gradientTransform="matrix(0,-1,-1,0,1843.5375,4837.0708)">
				<stop
   offset="0"
   style="stop-color:#A3A8AB"
   id="stop628" />
				<stop
   offset="0.3105"
   style="stop-color:#FFFFFF"
   id="stop629" />
				<stop
   offset="0.6214"
   style="stop-color:#A3A8AB"
   id="stop630" />
				<stop
   offset="1"
   style="stop-color:#E6ECF2"
   id="stop631" />
			</linearGradient>
			<path
   class="st158"
   d="m 1057.31,1126.2 89.56,-87.22 c 0,0 -6.86,28.11 -17.02,43.61 -10.15,15.5 -42.66,53.02 -72.54,43.61 z"
   id="path631"
   style="fill:url(#SVGID_103_)" />
			<path
   class="st34"
   d="m 1057.31,1122.94 86.56,-83.96 c 0,0 -6.63,27.06 -16.45,41.98 -9.81,14.92 -41.23,51.04 -70.11,41.98 z"
   id="path632" />
			<path
   class="st151"
   d="m 1057.31,1121.72 74.24,-82.74 c 0,0 -5.69,26.67 -14.11,41.37 -8.41,14.7 -35.36,50.3 -60.13,41.37 z"
   id="path633" />
			<path
   class="st6"
   d="m 1057.31,1113.4 75.46,-74.42 c 0,0 -5.78,23.99 -14.34,37.21 -8.56,13.23 -35.94,45.24 -61.12,37.21 z"
   id="path634" />
		</g><path
     class="st133"
     d="m 1082.8366,811.81935 c 12.93,-2.71 61.72,-71.12 75.8,-91.14 14.08,-20.03 9.96,-96.69 9.96,-96.7 0,-0.01 4.12,-76.67 -9.96,-96.7 -14.08,-20.03 -62.86,-88.44 -75.8,-91.14 -12.93,-2.71 -311.17996,-21.97 -381.17996,-21.97 -70,0 -395.89,7.18 -460.88,21.97 -64.98,14.79 -92.83,6.9 -106.2,36.34 -13.37,29.42 -32.04,94.76 -32.04,151.5 v 0 c 0,0 0,0 0,0 v 0 0 c 0,56.74 18.67,122.07 32.03,151.51 13.37,29.43 41.22,21.55 106.2,36.34 64.98,14.79 390.88,21.97 460.88,21.97 70,0 368.24996,-19.27 381.18996,-21.98 z"
     id="path635" /><path
     class="st14"
     d="m 1084.6566,805.04935 c 12.74,-2.61 60.81,-68.55 74.68,-87.86 13.87,-19.3 9.81,-93.2 9.81,-93.21 0,-0.01 4.06,-73.91 -9.81,-93.21 -13.87,-19.31 -61.94,-85.25 -74.68,-87.86 -12.74,-2.61 -306.60996,-21.18 -375.57996,-21.18 -68.97,0 -390.07,6.92 -454.1,21.18 -64.03,14.26 -91.47,6.66 -104.64,35.03 -13.17,28.37 -31.56,91.35 -31.56,146.04 v 0 c 0,0 0,0 0,0 v 0 0 c 0,54.69 18.39,117.67 31.56,146.04 13.17,28.37 40.61,20.77 104.64,35.03 64.03,14.26 385.13,21.18 454.1,21.18 68.97,0 362.82996,-18.58 375.57996,-21.18 z"
     id="path636" /><g
     id="g638"
     transform="translate(20.536644,-314.21065)">
			<path
   class="st133"
   d="m 1166.42,938.19 c 0,0 4.19,-69.89 -10.13,-88.15 -14.32,-18.26 -63.95,-80.62 -77.1,-83.08 -13.16,-2.47 -316.55,-20.03 -387.75,-20.03 -71.2,0 -402.72,6.55 -468.82,20.03 -66.1,13.48 -94.43,6.29 -108.03,33.12 C 100.99,826.91 82,886.47 82,938.19 Z"
   id="path637" />
			<path
   class="st92"
   d="m 1166.42,938.19 c 0,0 4.19,69.89 -10.13,88.15 -14.32,18.26 -63.95,80.62 -77.1,83.08 -13.16,2.47 -316.55,20.03 -387.75,20.03 -71.2,0 -402.72,-6.55 -468.82,-20.03 -66.1,-13.48 -94.43,-6.29 -108.03,-33.12 C 100.99,1049.46 82,989.91 82,938.19 Z"
   id="path638" />
		</g><path
     class="st159"
     d="m 584.35664,753.93935 c 168.75,1.16 283.45,41.27 283.45,41.27 149.94996,-2.03 297.87996,-70.92 309.01996,-83.08 11.15,-12.16 10.13,-88.15 10.13,-88.15 0,0 1.01,-75.99 -10.13,-88.15 -11.15,-12.16 -159.07,-81.06 -309.01996,-83.08 0,0 -114.69,40.11 -283.45,41.27 -168.75,1.16 -322.38,-23.28 -350.31,-22.11 -17.46,0.73 -51.75,6 -75,9.86 -16.68,2.76 -30.68,14.04 -37.03,29.72 -9.05,22.36 -19.48,59.61 -19.48,112.49 0,52.88 10.42,90.12 19.48,112.5 6.34,15.68 20.34,26.95 37.03,29.72 23.25,3.85 57.54,9.13 75,9.86 27.93,1.15 181.56,-23.29 350.31,-22.12 z"
     id="path639"
     style="fill:url(#SVGID_104_)" /><path
     class="st75"
     d="m 918.79664,623.97935 c 0,0 -4.8,-144.99 -51.46,-162.83 0,0 -64.5,22.99 -128.8,28.92 -3.81,0.35 -6.55,3.8 -6.03,7.59 2.46,18.08 8.6,68.92 8.6,126.32 0,57.41 -6.14,108.24 -8.6,126.32 -0.52,3.79 2.23,7.24 6.03,7.59 64.31,5.93 128.8,28.92 128.8,28.92 46.65,-17.84 51.46,-162.83 51.46,-162.83 z"
     id="path640" /><path
     class="st124"
     d="m 897.24664,623.97935 c 0,0 -4.13,-137.78 -44.2,-154.73 0,0 -51.37,20.25 -104.5,26.79 -6.66,0.82 -11.44,6.8 -10.67,13.47 2.38,20.63 6.73,64.98 6.73,114.47 0,49.49 -4.34,93.84 -6.73,114.47 -0.77,6.67 4.01,12.65 10.67,13.47 53.13,6.54 104.5,26.79 104.5,26.79 40.08,-16.96 44.2,-154.73 44.2,-154.73 z"
     id="path641" /><path
     class="st133"
     d="m 533.54664,504.65935 c -64.59,0 -136.07,-7.38 -136.07,-7.38 0,0 -18.08,40.7 -18.08,126.7 h 356.97 c 0,0 -0.81,-57.69 -8.41,-126.7 -0.01,0 -129.83,7.38 -194.41,7.38 z"
     id="path642" /><path
     class="st136"
     d="m 727.94664,750.70935 c 7.61,-69.01 8.41,-126.7 8.41,-126.7 h -356.97 c 0,86 18.08,126.7 18.08,126.7 0,0 71.48,-7.38 136.07,-7.38 64.59,0 194.41,7.38 194.41,7.38 z"
     id="path643" /><path
     class="st11"
     d="m 727.94664,709.30935 c 7.61,-46.47 8.41,-85.33 8.41,-85.34 0,-0.01 -0.81,-38.86 -8.41,-85.34 0,0 -129.82,4.97 -194.4,4.97 -64.58,0 -136.07,-4.97 -136.07,-4.97 0,0 -18.08,27.41 -18.08,85.34 0,57.92 18.08,85.34 18.08,85.34 0,0 71.48,-4.97 136.07,-4.97 64.59,0 194.4,4.97 194.4,4.97 z"
     id="path644" /><path
     class="st75"
     d="m 260.23664,767.17935 132.08,-14.54 c 0,0 -19.56,-20.73 -19.56,-128.65 v -0.01 c 0,-107.92 19.56,-128.65 19.56,-128.65 l -132.08,-14.55 c 0,0 -11.4,-1.18 -20.44,18.08 -9.04,19.26 -23.18,62.37 -23.19,125.09 v 0 c 0,0.01 0,0.02 0,0.03 0,0.01 0,0.02 0,0.03 v 0 c 0.01,62.72 14.15,105.83 23.19,125.09 9.04,19.26 20.44,18.08 20.44,18.08 z"
     id="path645" /><path
     class="st124"
     d="m 267.18664,762.28935 121.39,-14.05 c 0,0 -17.98,-20.02 -17.98,-124.25 v -0.01 c 0,-104.23 17.98,-124.25 17.98,-124.25 l -121.39,-14.05 c 0,0 -10.48,-1.14 -18.79,17.46 -8.31,18.6 -21.31,60.24 -21.32,120.81 v 0 c 0,0.01 0,0.02 0,0.03 0,0.01 0,0.02 0,0.03 v 0 c 0.01,60.57 13.01,102.22 21.32,120.81 8.32,18.61 18.79,17.47 18.79,17.47 z"
     id="path646" /><path
     class="st133"
     d="m 1182.1866,620.59935 c 0.03,-14.42 -0.43,-70.72 -9.7,-80.83 -10.65,-11.62 -151.96,-77.43 -295.20996,-79.37 0,0 23.16,14.34 37.54,67 129.47996,6.67 247.94996,39.94 257.65996,46.27 8.86,5.77 9.69,36.62 9.71,46.93 z"
     id="path647" /><path
     class="st136"
     d="m 877.28664,787.54935 c 143.24996,-1.94 284.55996,-67.75 295.20996,-79.37 9.27,-10.11 9.73,-66.41 9.7,-80.83 -0.03,10.31 -0.86,41.17 -9.7,46.93 -9.71,6.33 -128.19,39.6 -257.65996,46.27 -14.39,52.66 -37.55,67 -37.55,67 z"
     id="path648" /><path
     class="st11"
     d="m 1182.1866,627.34935 c 0.01,-2.11 -0.02,-3.37 -0.02,-3.37 v 0 c 0,0 0.02,1.22 0.02,3.37 z"
     id="path649" /><path
     class="st11"
     d="m 1182.1866,620.59935 c -0.01,2.15 -0.02,3.37 -0.02,3.37 0,0.01 0.03,-1.26 0.02,-3.37 z"
     id="path650" /><path
     class="st92"
     d="m 1182.1866,627.34935 c -0.01,-2.15 -0.02,-3.37 -0.02,-3.37 v 0 0 0 c 0,0 0.02,-1.23 0.02,-3.37 -0.03,-10.31 -0.86,-41.17 -9.7,-46.93 -9.71,-6.33 -128.19,-39.6 -257.65996,-46.27 6.47,23.7 11.17,55.16 11.17,96.57 0,0 0,0 0,0 v 0 0 c 0,41.41 -4.69,72.87 -11.17,96.57 129.47996,-6.66 247.94996,-39.94 257.65996,-46.27 8.85,-5.76 9.68,-36.62 9.7,-46.93 z"
     id="path651" /><path
     class="st75"
     d="m 833.27664,799.93935 c 0,0 -112.61,-35.56 -227.53,-33.23 -114.92,2.33 -250.08,9.57 -297.43,29.26 0,0 145.69,7.22 194.56,7.22 48.87,0 171.4,0 196.2,0 24.8,0 134.2,-3.25 134.2,-3.25 z"
     id="path652" /><path
     class="st160"
     d="m 833.27664,798.51935 c 0,0 -112.61,-34.04 -227.53,-31.82 -114.92,2.23 -250.08,9.16 -297.43,28.01 0,0 145.69,6.92 194.56,6.92 48.87,0 171.4,0 196.2,0 24.8,0.01 134.2,-3.11 134.2,-3.11 z"
     id="path653" /><polygon
     class="st75"
     points="553.84,1081.64 577.21,1080.81 586.99,1115.85 556.89,1115.85 "
     id="polygon653"
     transform="translate(20.536644,-314.21065)" /><path
     class="st75"
     d="m 835.84664,448.17935 c 0,0 -112.61,35.56 -227.53,33.23 -114.92,-2.33 -250.08,-9.57 -297.43,-29.26 0,0 145.69,-7.23 194.56,-7.23 48.87,0 171.4,0 196.2,0 24.8,0 134.2,3.26 134.2,3.26 z"
     id="path654" /><path
     class="st160"
     d="m 835.84664,449.59935 c 0,0 -112.61,34.04 -227.53,31.82 -114.92,-2.23 -250.08,-9.16 -297.43,-28.01 0,0 145.69,-6.92 194.56,-6.92 48.87,0 171.4,0 196.2,0 24.8,0 134.2,3.11 134.2,3.11 z"
     id="path655" /><polygon
     class="st75"
     points="556.41,794.9 579.78,795.73 589.56,760.7 559.45,760.7 "
     id="polygon655"
     transform="translate(20.536644,-314.21065)" /><path
     class="st92"
     d="m 212.48664,623.97935 c 0,-77.49 23.01,-131.47 23.01,-131.47 0,0 -96.49,22.37 -110.55,53.04 -14.06,30.67 -10.22,78.43 -10.22,78.43 0,0 -3.83,47.76 10.22,78.43 14.06,30.67 110.55,53.04 110.55,53.04 0,0 -23.01,-53.98 -23.01,-131.47 z"
     id="path656" /><g
     id="g661"
     transform="translate(20.536644,-314.21065)">
			<path
   class="st136"
   d="m 815.97,756.51 v 7.02 c 0,0 -21.99,1.49 -25.73,-7.02 z"
   id="path657" />
			<path
   class="st124"
   d="m 767.66,704.96 c 0,0 -0.73,0.26 -0.74,4.45 -0.01,4.18 6.83,5.13 16.34,44.68 0,0 6.3,3.61 4.29,-7.03 -2.01,-10.65 -13.62,-42.17 -19.89,-42.1 z"
   id="path658" />
			<path
   class="st14"
   d="m 807.19,720.66 c 0,0 11.32,16.64 13.53,31.46 0.34,2.32 -1.51,4.38 -3.85,4.38 H 791.1 c -1.81,0 -3.37,-1.24 -3.78,-3 -1.8,-7.75 -7.08,-28.62 -14.13,-39.79 l -5.53,-8.75 c -1.9,-3.01 0.06,-6.98 3.6,-7.26 2.79,-0.22 6.36,0.14 10.52,1.94 8.46,3.66 17.91,10.42 25.41,21.02 z"
   id="path659" />
			<path
   class="st133"
   d="m 774.83,700.67 c -2.3,-1 -4.41,-1.54 -6.32,-1.8 -1.63,1.46 -2.17,4.01 -0.85,6.09 l 5.53,8.75 c 7.05,11.17 12.33,32.04 14.13,39.79 0.41,1.76 1.97,3 3.78,3 h 21.43 c 0.91,-0.82 1.43,-2.04 1.24,-3.35 -2.2,-14.82 -13.53,-31.46 -13.53,-31.46 -7.5,-10.6 -16.95,-17.36 -25.41,-21.02 z"
   id="path660" />
			<path
   class="st92"
   d="m 808.03,756.51 c 0.13,-0.47 0.19,-0.96 0.11,-1.48 -2.2,-14.82 -13.53,-31.46 -13.53,-31.46 -7.49,-10.6 -16.95,-17.36 -25.41,-21.02 -0.77,-0.33 -1.51,-0.6 -2.23,-0.84 -0.17,1.07 0.03,2.22 0.68,3.25 l 5.53,8.75 c 7.05,11.17 12.33,32.04 14.13,39.79 0.41,1.76 1.97,3 3.78,3 h 16.94 z"
   id="path661" />
		</g><g
     id="g666"
     transform="translate(20.536644,-314.21065)">
			<path
   class="st136"
   d="m 814.32,1121.32 v -7.02 c 0,0 -21.99,-1.49 -25.73,7.02 z"
   id="path662" />
			<path
   class="st124"
   d="m 766.01,1172.86 c 0,0 -0.73,-0.26 -0.74,-4.45 -0.01,-4.18 6.83,-5.13 16.34,-44.68 0,0 6.3,-3.61 4.29,7.03 -2.01,10.66 -13.62,42.18 -19.89,42.1 z"
   id="path663" />
			<path
   class="st14"
   d="m 805.54,1157.16 c 0,0 11.32,-16.64 13.53,-31.46 0.34,-2.32 -1.51,-4.38 -3.85,-4.38 h -25.76 c -1.81,0 -3.37,1.24 -3.78,3 -1.8,7.75 -7.08,28.62 -14.13,39.79 l -5.53,8.75 c -1.9,3.01 0.06,6.98 3.6,7.26 2.79,0.22 6.36,-0.14 10.52,-1.94 8.45,-3.65 17.9,-10.42 25.4,-21.02 z"
   id="path664" />
			<path
   class="st133"
   d="m 773.18,1177.15 c -2.3,1 -4.41,1.54 -6.32,1.8 -1.63,-1.46 -2.17,-4.01 -0.85,-6.09 l 5.53,-8.75 c 7.05,-11.17 12.34,-32.04 14.14,-39.79 0.41,-1.76 1.97,-3 3.78,-3 h 21.43 c 0.91,0.82 1.43,2.04 1.24,3.35 -2.2,14.82 -13.53,31.46 -13.53,31.46 -7.5,10.6 -16.96,17.37 -25.42,21.02 z"
   id="path665" />
			<path
   class="st92"
   d="m 806.39,1121.32 c 0.13,0.47 0.19,0.96 0.11,1.48 -2.2,14.82 -13.53,31.46 -13.53,31.46 -7.49,10.6 -16.95,17.36 -25.41,21.02 -0.77,0.33 -1.51,0.6 -2.23,0.84 -0.17,-1.07 0.03,-2.22 0.68,-3.25 l 5.53,-8.75 c 7.05,-11.17 12.34,-32.04 14.14,-39.79 0.41,-1.76 1.97,-3 3.78,-3 h 16.93 z"
   id="path666" />
		</g></g>
	</g></g><style
     type="text/css"
     id="style1">
	.st0{fill:#FFFFFF;stroke:#231F20;stroke-miterlimit:10;}
	.st1{fill:#231F20;}
	.st2{fill:url(#SVGID_1_);}
	.st3{fill:#380509;}
	.st4{fill:url(#SVGID_2_);}
	.st5{fill:#A60E14;}
	.st6{fill:#ADB1B5;}
	.st7{fill:#4F4851;}
	.st8{fill:#8C000C;}
	.st9{fill:url(#SVGID_3_);}
	.st10{fill:#EA1C24;}
	.st11{fill:#B12420;}
	.st12{fill:url(#SVGID_4_);}
	.st13{fill:url(#SVGID_5_);}
	.st14{fill:#FF8E84;}
	.st15{fill:#BA222D;}
	.st16{fill:url(#SVGID_6_);}
	.st17{fill:url(#SVGID_7_);}
	.st18{fill:url(#SVGID_8_);}
	.st19{fill:url(#SVGID_9_);}
	.st20{fill:url(#SVGID_10_);}
	.st21{fill:url(#SVGID_11_);}
	.st22{fill:url(#SVGID_12_);}
	.st23{fill:url(#SVGID_13_);}
	.st24{fill:url(#SVGID_14_);}
	.st25{fill:url(#SVGID_15_);}
	.st26{fill:url(#SVGID_16_);}
	.st27{fill:url(#SVGID_17_);}
	.st28{fill:url(#SVGID_18_);}
	.st29{fill:#28282C;}
	.st30{fill:url(#SVGID_19_);}
	.st31{fill:url(#SVGID_20_);}
	.st32{fill:url(#SVGID_21_);}
	.st33{fill:#191D1E;}
	.st34{fill:#D7D8DC;}
	.st35{fill:#434248;}
	.st36{fill:url(#SVGID_22_);}
	.st37{fill:#0C0D0C;}
	.st38{fill:#393942;}
	.st39{fill:url(#SVGID_23_);}
	.st40{fill:#A3A8AB;}
	.st41{fill:url(#SVGID_24_);}
	.st42{fill:url(#SVGID_25_);}
	.st43{fill:url(#SVGID_26_);}
	.st44{fill:#E0DFE3;}
	.st45{fill:#020705;}
	.st46{fill:#3D3A3D;}
	.st47{fill:#3A6088;}
	.st48{fill:#5C1114;}
	.st49{fill:#350A0B;}
	.st50{fill:#811517;}
	.st51{fill:#FFD4D2;}
	.st52{fill:none;stroke:#231F20;stroke-width:1.2517;stroke-miterlimit:10;}
	.st53{fill:url(#SVGID_27_);}
	.st54{fill:url(#SVGID_28_);}
	.st55{opacity:0.8;fill:#B12420;}
	.st56{fill:#808084;}
	.st57{fill:#56555F;}
	.st58{fill:none;stroke:#808084;stroke-width:1.2517;stroke-miterlimit:10;}
	.st59{fill:url(#SVGID_29_);}
	.st60{fill:url(#SVGID_30_);}
	.st61{fill:url(#SVGID_31_);}
	.st62{fill:url(#SVGID_32_);}
	.st63{fill:url(#SVGID_33_);}
	.st64{fill:#3D3C3F;}
	.st65{fill:url(#SVGID_34_);}
	.st66{fill:url(#SVGID_35_);}
	.st67{fill:url(#SVGID_36_);}
	.st68{fill:url(#SVGID_37_);}
	.st69{fill:url(#SVGID_38_);}
	.st70{fill:url(#SVGID_39_);}
	.st71{fill:url(#SVGID_40_);}
	.st72{fill:url(#SVGID_41_);}
	.st73{fill:#50070C;}
	.st74{fill:url(#SVGID_42_);}
	.st75{fill:#0C0C12;}
	.st76{fill:url(#SVGID_43_);}
	.st77{fill:#2B2C31;}
	.st78{fill:url(#SVGID_44_);}
	.st79{fill:url(#SVGID_45_);}
	.st80{fill:url(#SVGID_46_);}
	.st81{fill:#7A0F15;}
	.st82{fill:url(#SVGID_47_);}
	.st83{fill:url(#SVGID_48_);}
	.st84{fill:#6A6C7A;}
	.st85{fill:url(#SVGID_49_);}
	.st86{fill:url(#SVGID_50_);}
	.st87{fill:url(#SVGID_51_);}
	.st88{fill:url(#SVGID_52_);}
	.st89{fill:url(#SVGID_53_);}
	.st90{fill:url(#SVGID_54_);}
	.st91{fill:url(#SVGID_55_);}
	.st92{fill:#9B1B1B;}
	.st93{fill:#F4C7C5;}
	.st94{fill:url(#SVGID_56_);}
	.st95{fill:url(#SVGID_57_);}
	.st96{fill:url(#SVGID_58_);}
	.st97{fill:url(#SVGID_59_);}
	.st98{fill:url(#SVGID_60_);}
	.st99{fill:url(#SVGID_61_);}
	.st100{fill:url(#SVGID_62_);}
	.st101{fill:url(#SVGID_63_);}
	.st102{fill:url(#SVGID_64_);}
	.st103{fill:none;stroke:url(#SVGID_65_);stroke-width:2;stroke-miterlimit:10;}
	.st104{fill:none;stroke:url(#SVGID_66_);stroke-width:2;stroke-miterlimit:10;}
	.st105{fill:none;stroke:url(#SVGID_67_);stroke-width:2;stroke-miterlimit:10;}
	.st106{fill:none;stroke:url(#SVGID_68_);stroke-width:2;stroke-miterlimit:10;}
	.st107{fill:url(#SVGID_69_);}
	.st108{fill:url(#SVGID_70_);}
	.st109{fill:url(#SVGID_71_);}
	.st110{fill:url(#SVGID_72_);}
	.st111{fill:url(#SVGID_73_);}
	.st112{fill:url(#SVGID_74_);}
	.st113{fill:url(#SVGID_75_);}
	.st114{fill:url(#SVGID_76_);}
	.st115{fill:url(#SVGID_77_);}
	.st116{fill:url(#SVGID_78_);}
	.st117{fill:url(#SVGID_79_);}
	.st118{fill:url(#SVGID_80_);}
	.st119{fill:url(#SVGID_81_);}
	.st120{fill:url(#SVGID_82_);}
	.st121{fill:url(#SVGID_83_);}
	.st122{fill:url(#SVGID_84_);}
	.st123{fill:#464649;}
	.st124{fill:#393B3D;}
	.st125{fill:#3E3C42;}
	.st126{fill:#262629;}
	.st127{fill:#727475;}
	.st128{fill:#35343C;}
	.st129{fill:#1D1F25;}
	.st130{fill:#DEEADC;}
	.st131{fill:#781417;}
	.st132{fill:#A8BABB;}
	.st133{fill:#D41F25;}
	.st134{fill:url(#SVGID_85_);}
	.st135{fill:url(#SVGID_86_);}
	.st136{fill:#6D131C;}
	.st137{fill:url(#SVGID_87_);}
	.st138{fill:url(#SVGID_88_);}
	.st139{fill:url(#SVGID_89_);}
	.st140{fill:#290D14;}
	.st141{fill:none;stroke:url(#SVGID_90_);stroke-width:1.8144;stroke-linecap:round;stroke-linejoin:round;stroke-miterlimit:10;}
	.st142{fill:url(#SVGID_91_);}
	.st143{fill:#BC3535;}
	.st144{fill:url(#SVGID_92_);}
	.st145{fill:none;stroke:url(#SVGID_93_);stroke-width:1.8144;stroke-miterlimit:10;}
	.st146{fill:none;stroke:url(#SVGID_94_);stroke-width:1.8144;stroke-miterlimit:10;}
	.st147{fill:none;stroke:url(#SVGID_95_);stroke-width:1.8144;stroke-miterlimit:10;}
	.st148{fill:none;stroke:url(#SVGID_96_);stroke-width:1.8144;stroke-miterlimit:10;}
	.st149{fill:none;stroke:url(#SVGID_97_);stroke-width:1.8144;stroke-miterlimit:10;}
	.st150{fill:none;stroke:url(#SVGID_98_);stroke-width:1.8144;stroke-miterlimit:10;}
	.st151{fill:#FEFEFE;}
	.st152{fill:#0332B8;}
	.st153{fill:none;stroke:#0C0C12;stroke-miterlimit:10;}
	.st154{fill:url(#SVGID_99_);}
	.st155{fill:url(#SVGID_100_);}
	.st156{fill:url(#SVGID_101_);}
	.st157{fill:url(#SVGID_102_);}
	.st158{fill:url(#SVGID_103_);}
	.st159{fill:url(#SVGID_104_);}
	.st160{fill:#292B2F;}
	.st161{fill:#6D6E70;}
	.st162{fill:#909295;}
</style></svg>
